<svg width="20" height="20" viewBox="0 0 20 20" fill="none" xmlns="http://www.w3.org/2000/svg">
<path d="M11.81 18.9583H3.33329C2.72571 18.9577 2.1432 18.716 1.71357 18.2864C1.28394 17.8568 1.04229 17.2743 1.04163 16.6667V4.16667C1.04229 3.55908 1.28394 2.97657 1.71357 2.54694C2.1432 2.11732 2.72571 1.87566 3.33329 1.875H16.6666C17.2742 1.87566 17.8567 2.11732 18.2863 2.54694C18.716 2.97657 18.9576 3.55908 18.9583 4.16667V11.8092C18.9591 12.1103 18.9002 12.4087 18.7849 12.6869C18.6696 12.9651 18.5002 13.2177 18.2866 13.43L13.43 18.2867C13.2177 18.5002 12.9653 18.6695 12.6872 18.7847C12.4092 18.9 12.111 18.959 11.81 18.9583ZM3.33329 3.125C3.05709 3.12522 2.79227 3.23504 2.59697 3.43034C2.40166 3.62564 2.29185 3.89047 2.29163 4.16667V16.6667C2.29185 16.9429 2.40166 17.2077 2.59697 17.403C2.79227 17.5983 3.05709 17.7081 3.33329 17.7083H11.81C12.0861 17.7077 12.3509 17.5981 12.5466 17.4033L17.4033 12.5467C17.5004 12.45 17.5774 12.3351 17.6297 12.2085C17.6821 12.0819 17.7088 11.9462 17.7083 11.8092V4.16667C17.7081 3.89047 17.5983 3.62564 17.403 3.43034C17.2076 3.23504 16.9428 3.12522 16.6666 3.125H3.33329Z" fill="#1983FF"/>
<path d="M5.83329 4.79175C5.66753 4.79175 5.50856 4.7259 5.39135 4.60869C5.27414 4.49148 5.20829 4.33251 5.20829 4.16675V1.66675C5.20829 1.50099 5.27414 1.34202 5.39135 1.22481C5.50856 1.1076 5.66753 1.04175 5.83329 1.04175C5.99905 1.04175 6.15802 1.1076 6.27523 1.22481C6.39244 1.34202 6.45829 1.50099 6.45829 1.66675V4.16675C6.45829 4.33251 6.39244 4.49148 6.27523 4.60869C6.15802 4.7259 5.99905 4.79175 5.83329 4.79175ZM9.99996 4.79175C9.8342 4.79175 9.67523 4.7259 9.55802 4.60869C9.44081 4.49148 9.37496 4.33251 9.37496 4.16675V1.66675C9.37496 1.50099 9.44081 1.34202 9.55802 1.22481C9.67523 1.1076 9.8342 1.04175 9.99996 1.04175C10.1657 1.04175 10.3247 1.1076 10.4419 1.22481C10.5591 1.34202 10.625 1.50099 10.625 1.66675V4.16675C10.625 4.33251 10.5591 4.49148 10.4419 4.60869C10.3247 4.7259 10.1657 4.79175 9.99996 4.79175ZM14.1666 4.79175C14.0009 4.79175 13.8419 4.7259 13.7247 4.60869C13.6075 4.49148 13.5416 4.33251 13.5416 4.16675V1.66675C13.5416 1.50099 13.6075 1.34202 13.7247 1.22481C13.8419 1.1076 14.0009 1.04175 14.1666 1.04175C14.3324 1.04175 14.4914 1.1076 14.6086 1.22481C14.7258 1.34202 14.7916 1.50099 14.7916 1.66675V4.16675C14.7916 4.33251 14.7258 4.49148 14.6086 4.60869C14.4914 4.7259 14.3324 4.79175 14.1666 4.79175ZM18.3333 7.29175H1.66663C1.50087 7.29175 1.34189 7.2259 1.22468 7.10869C1.10747 6.99148 1.04163 6.83251 1.04163 6.66675C1.04163 6.50099 1.10747 6.34202 1.22468 6.22481C1.34189 6.1076 1.50087 6.04175 1.66663 6.04175H18.3333C18.4991 6.04175 18.658 6.1076 18.7752 6.22481C18.8924 6.34202 18.9583 6.50099 18.9583 6.66675C18.9583 6.83251 18.8924 6.99148 18.7752 7.10869C18.658 7.2259 18.4991 7.29175 18.3333 7.29175ZM12.5 18.8084C12.3342 18.8084 12.1752 18.7426 12.058 18.6254C11.9408 18.5081 11.875 18.3492 11.875 18.1834V13.3334C11.8754 12.9468 12.0292 12.5761 12.3026 12.3027C12.576 12.0293 12.9467 11.8755 13.3333 11.8751H18.1833C18.3491 11.8751 18.508 11.9409 18.6252 12.0581C18.7424 12.1753 18.8083 12.3343 18.8083 12.5001C18.8083 12.6658 18.7424 12.8248 18.6252 12.942C18.508 13.0592 18.3491 13.1251 18.1833 13.1251H13.3333C13.2782 13.1257 13.2256 13.1479 13.1867 13.1868C13.1478 13.2257 13.1256 13.2784 13.125 13.3334V18.1834C13.125 18.3492 13.0591 18.5081 12.9419 18.6254C12.8247 18.7426 12.6657 18.8084 12.5 18.8084Z" fill="#1983FF"/>
</svg>
