<svg width="20" height="20" viewBox="0 0 20 20" fill="none" xmlns="http://www.w3.org/2000/svg">
<g clip-path="url(#clip0_6_438)">
<path d="M9.99995 16.25C3.4573 16.25 0.213546 10.5463 0.0787018 10.3036C0.0270672 10.2107 -3.05176e-05 10.1062 -3.05176e-05 9.99992C-3.05176e-05 9.89365 0.0270672 9.78913 0.0787018 9.69625C0.213546 9.45375 3.4573 3.75 9.99995 3.75C16.5426 3.75 19.7864 9.45375 19.9212 9.69641C19.9728 9.78929 19.9999 9.89381 19.9999 10.0001C19.9999 10.1063 19.9728 10.2109 19.9212 10.3038C19.7864 10.5462 16.5426 16.25 9.99995 16.25ZM1.36042 9.99906C2.10386 11.1258 5.02276 15 9.99995 15C14.9929 15 17.8989 11.1289 18.6395 10.0009C17.896 8.87422 14.9771 5 9.99995 5C5.00698 5 2.10105 8.87109 1.36042 9.99906ZM9.99995 13.75C7.93214 13.75 6.24995 12.0678 6.24995 10C6.24995 7.93219 7.93214 6.25 9.99995 6.25C12.0678 6.25 13.75 7.93219 13.75 10C13.75 12.0678 12.0678 13.75 9.99995 13.75ZM9.99995 7.5C8.62151 7.5 7.49995 8.62156 7.49995 10C7.49995 11.3784 8.62151 12.5 9.99995 12.5C11.3784 12.5 12.5 11.3784 12.5 10C12.5 8.62156 11.3784 7.5 9.99995 7.5Z" fill="#1983FF"/>
</g>
<defs>
<clipPath id="clip0_6_438">
<rect width="20" height="20" fill="white"/>
</clipPath>
</defs>
</svg>
