<svg width="100" height="57" viewBox="0 0 100 57" fill="none" xmlns="http://www.w3.org/2000/svg">
<path d="M16.208 57C12.798 56.982 9.8845 55.8564 7.46733 53.6232C5.05016 51.39 3.20131 48.1393 1.92079 43.8711C0.640262 39.6028 0 34.4611 0 28.446C0 22.4488 0.640262 17.3251 1.92079 13.0749C3.2157 8.82465 5.07174 5.58294 7.48891 3.34977C9.92047 1.11659 12.8268 0 16.208 0C19.5891 0 22.4883 1.12559 24.9055 3.37678C27.3226 5.60995 29.1715 8.85166 30.452 13.1019C31.7469 17.3341 32.3944 22.4488 32.3944 28.446C32.3944 34.4791 31.7541 39.6299 30.4736 43.8981C29.1931 48.1483 27.3442 51.3991 24.9271 53.6502C22.5099 55.8834 19.6035 57 16.208 57ZM16.208 49.7872C19.2007 49.7872 21.5387 47.9592 23.2221 44.3033C24.9199 40.6474 25.7688 35.3616 25.7688 28.446C25.7688 23.8536 25.3803 19.9725 24.6033 16.8028C23.8408 13.6152 22.7401 11.2019 21.3013 9.56303C19.8769 7.90616 18.1791 7.07772 16.208 7.07772C13.2297 7.07772 10.8916 8.91469 9.19388 12.5886C7.4961 16.2626 6.64002 21.5483 6.62563 28.446C6.62563 33.0564 7.00691 36.9554 7.76947 40.1431C8.54642 43.3128 9.64709 45.7171 11.0715 47.3559C12.4959 48.9768 14.2081 49.7872 16.208 49.7872Z" fill="url(#paint0_linear_1_164)"/>
<path d="M84.8708 52.4872V32.5518H98.8386V36.4649H89.7126V40.5532H98.1246V44.476H89.7126V48.5741H98.8386V52.4872H84.8708Z" fill="#252525"/>
<path d="M71.053 52.4872H63.6485V32.5518H71.0432C73.0842 32.5518 74.8416 32.9509 76.3153 33.7491C77.7956 34.5408 78.9367 35.683 79.7388 37.1755C80.5409 38.6616 80.9419 40.4397 80.9419 42.5098C80.9419 44.5864 80.5409 46.3709 79.7388 47.8635C78.9433 49.356 77.8054 50.5014 76.3251 51.2996C74.8449 52.0913 73.0875 52.4872 71.053 52.4872ZM68.4903 48.3794H70.8671C71.9887 48.3794 72.9375 48.1912 73.7135 47.8148C74.496 47.4319 75.0861 46.8122 75.4839 45.9556C75.8882 45.0925 76.0904 43.9439 76.0904 42.5098C76.0904 41.0756 75.8882 39.9335 75.4839 39.0834C75.0796 38.2268 74.483 37.6103 73.6939 37.2339C72.9114 36.851 71.9463 36.6596 70.7987 36.6596H68.4903V48.3794Z" fill="#252525"/>
<path d="M59.7198 42.5193C59.7198 44.7127 59.296 46.5719 58.4482 48.0969C57.6005 49.6219 56.4528 50.7802 55.0052 51.5719C53.5641 52.3636 51.9469 52.7595 50.1537 52.7595C48.3539 52.7595 46.7335 52.3604 45.2923 51.5622C43.8512 50.764 42.7068 49.6057 41.8591 48.0872C41.0179 46.5622 40.5973 44.7062 40.5973 42.5193C40.5973 40.3259 41.0179 38.4667 41.8591 36.9417C42.7068 35.4167 43.8512 34.2583 45.2923 33.4666C46.7335 32.6749 48.3539 32.2791 50.1537 32.2791C51.9469 32.2791 53.5641 32.6749 55.0052 33.4666C56.4528 34.2583 57.6005 35.4167 58.4482 36.9417C59.296 38.4667 59.7198 40.3259 59.7198 42.5193ZM54.7705 42.5193C54.7705 41.2214 54.5846 40.1247 54.2129 39.2292C53.8477 38.3337 53.3196 37.6555 52.6283 37.1948C51.9436 36.734 51.1188 36.5037 50.1537 36.5037C49.1951 36.5037 48.3702 36.734 47.679 37.1948C46.9878 37.6555 46.4563 38.3337 46.0846 39.2292C45.7195 40.1247 45.5369 41.2214 45.5369 42.5193C45.5369 43.8172 45.7195 44.9139 46.0846 45.8094C46.4563 46.7049 46.9878 47.3831 47.679 47.8438C48.3702 48.3045 49.1951 48.5349 50.1537 48.5349C51.1188 48.5349 51.9436 48.3045 52.6283 47.8438C53.3196 47.3831 53.8477 46.7049 54.2129 45.8094C54.5846 44.9139 54.7705 43.8172 54.7705 42.5193Z" fill="#252525"/>
<path d="M36.9403 39.7743H32.0496C31.9844 39.2746 31.8507 38.8236 31.6486 38.4213C31.4464 38.0189 31.1791 37.675 30.8465 37.3895C30.5139 37.1039 30.1194 36.8865 29.663 36.7373C29.213 36.5815 28.7142 36.5037 28.1664 36.5037C27.1948 36.5037 26.3569 36.7405 25.6526 37.2142C24.9549 37.688 24.4169 38.3726 24.0387 39.2681C23.667 40.1637 23.4811 41.2474 23.4811 42.5193C23.4811 43.8431 23.6702 44.9528 24.0485 45.8483C24.4332 46.7374 24.9712 47.409 25.6624 47.8633C26.3601 48.311 27.185 48.5349 28.1371 48.5349C28.6718 48.5349 29.1576 48.4668 29.5945 48.3305C30.0379 48.1942 30.4259 47.9963 30.7585 47.7367C31.0975 47.4707 31.3747 47.1494 31.5899 46.7731C31.8116 46.3902 31.9648 45.9586 32.0496 45.4784L36.9403 45.5076C36.8555 46.3902 36.5979 47.2598 36.1675 48.1164C35.7437 48.973 35.1601 49.7549 34.4167 50.4623C33.6733 51.1631 32.7669 51.7212 31.6975 52.1365C30.6346 52.5518 29.4152 52.7595 28.0392 52.7595C26.2264 52.7595 24.6027 52.3636 23.1681 51.5719C21.7401 50.7737 20.6119 49.6122 19.7838 48.0872C18.9556 46.5622 18.5416 44.7062 18.5416 42.5193C18.5416 40.3259 18.9622 38.4667 19.8034 36.9417C20.6446 35.4167 21.7825 34.2583 23.217 33.4666C24.6516 32.6749 26.259 32.2791 28.0392 32.2791C29.2521 32.2791 30.3737 32.4478 31.404 32.7853C32.4343 33.1162 33.3407 33.6029 34.1232 34.2454C34.9058 34.8813 35.5415 35.6633 36.0306 36.5913C36.5197 37.5192 36.8229 38.5802 36.9403 39.7743Z" fill="#252525"/>
<path d="M95.6355 13.6836C95.5775 13.0491 95.3196 12.5559 94.8617 12.2041C94.4096 11.8464 93.7633 11.6676 92.9228 11.6676C92.3664 11.6676 91.9026 11.7397 91.5317 11.8839C91.1607 12.0281 90.8825 12.2271 90.697 12.4809C90.5115 12.729 90.4159 13.0145 90.4101 13.3375C90.3985 13.6029 90.4507 13.8365 90.5666 14.0384C90.6883 14.2403 90.8622 14.4191 91.0883 14.5748C91.3201 14.7248 91.5983 14.8575 91.9229 14.9729C92.2475 15.0882 92.6127 15.1892 93.0184 15.2757L94.5487 15.6218C95.4297 15.8122 96.2064 16.066 96.8788 16.3832C97.557 16.7005 98.125 17.0783 98.5829 17.5167C99.0466 17.9551 99.3973 18.4598 99.635 19.0309C99.8726 19.6019 99.9944 20.2422 100 20.9517C99.9944 22.0708 99.7103 23.0312 99.1481 23.833C98.5858 24.6348 97.7772 25.2491 96.7223 25.676C95.6732 26.1028 94.4067 26.3163 92.9228 26.3163C91.4331 26.3163 90.1348 26.0942 89.0277 25.65C87.9206 25.2059 87.0598 24.531 86.4454 23.6253C85.831 22.7197 85.5151 21.5747 85.4977 20.1903H89.6189C89.6537 20.7614 89.8073 21.2373 90.0797 21.618C90.3521 21.9987 90.726 22.2871 91.2013 22.4832C91.6824 22.6793 92.2388 22.7774 92.8706 22.7774C93.4503 22.7774 93.943 22.6995 94.3487 22.5438C94.7602 22.388 95.0762 22.1717 95.2964 21.8948C95.5167 21.618 95.6297 21.3007 95.6355 20.9431C95.6297 20.6085 95.5254 20.323 95.3225 20.0865C95.1196 19.8442 94.8066 19.6365 94.3835 19.4635C93.9662 19.2847 93.4329 19.1203 92.7837 18.9703L90.9231 18.5377C89.3812 18.1858 88.1669 17.6176 87.2801 16.8331C86.3932 16.0429 85.9527 14.9757 85.9585 13.6317C85.9527 12.5357 86.2483 11.5753 86.8453 10.7505C87.4424 9.92558 88.2683 9.28242 89.3233 8.82095C90.3782 8.35949 91.581 8.12875 92.9315 8.12875C94.311 8.12875 95.508 8.36237 96.5223 8.8296C97.5425 9.29107 98.3337 9.94001 98.8959 10.7764C99.4582 11.6128 99.7451 12.5819 99.7567 13.6836H95.6355Z" fill="#252525"/>
<path d="M71.0915 26.0913V8.371H75.3953V22.613H82.803V26.0913H71.0915Z" fill="#252525"/>
<path d="M56.1725 26.0913V8.371H60.4763V22.613H67.884V26.0913H56.1725Z" fill="#252525"/>
<path d="M48.2007 8.371H52.4958V19.8009C52.4958 21.1219 52.1799 22.2726 51.5481 23.2533C50.9163 24.2281 50.0352 24.9838 48.9049 25.5202C47.7746 26.0509 46.4618 26.3162 44.9663 26.3162C43.4535 26.3162 42.1319 26.0509 41.0016 25.5202C39.8713 24.9838 38.9932 24.2281 38.3672 23.2533C37.7412 22.2726 37.4282 21.1219 37.4282 19.8009V8.371H41.732V19.4289C41.732 20.0403 41.8653 20.5854 42.1319 21.0642C42.4043 21.543 42.784 21.9179 43.2709 22.189C43.7578 22.4601 44.3229 22.5957 44.9663 22.5957C45.6097 22.5957 46.172 22.4601 46.6531 22.189C47.1399 21.9179 47.5196 21.543 47.792 21.0642C48.0645 20.5854 48.2007 20.0403 48.2007 19.4289V8.371Z" fill="#252525"/>
<path d="M33.7428 8.371V26.0913H30.0911L23.0051 15.864H22.892V26.0913H18.5883V8.371H22.2921L29.2999 18.5809H29.4477V8.371H33.7428Z" fill="#252525"/>
<defs>
<linearGradient id="paint0_linear_1_164" x1="0.865888" y1="5.79144" x2="31.5164" y2="54.1257" gradientUnits="userSpaceOnUse">
<stop stop-color="#0008FF"/>
<stop offset="1" stop-color="#20A6FF"/>
</linearGradient>
</defs>
</svg>
